<svg width="170" height="150" xmlns="http://www.w3.org/2000/svg" xmlns:xlink="http://www.w3.org/1999/xlink"><line x1="10" x2="160" y1="30" y2="30" style="stroke: rgb(155, 155, 155); stroke-width: 2px;"/><line x1="10" x2="160" y1="60" y2="60" style="stroke: rgb(155, 155, 155); stroke-width: 2px;"/><line x1="10" x2="160" y1="90" y2="90" style="stroke: rgb(155, 155, 155); stroke-width: 2px;"/><line x1="10" x2="160" y1="120" y2="120" style="stroke: rgb(155, 155, 155); stroke-width: 2px;"/><circle id="decor" cx="10" cy="30" r="3" fill="rgb(155, 155, 155)"/><circle id="decor" cx="85" cy="30" r="3" fill="rgb(155, 155, 155)"/><circle id="decor" cx="160" cy="30" r="3" fill="rgb(155, 155, 155)"/><circle id="decor" cx="10" cy="60" r="3" fill="rgb(155, 155, 155)"/><circle id="decor" cx="85" cy="60" r="3" fill="rgb(155, 155, 155)"/><circle id="decor" cx="160" cy="60" r="3" fill="rgb(155, 155, 155)"/><circle id="decor" cx="10" cy="90" r="3" fill="rgb(155, 155, 155)"/><circle id="decor" cx="85" cy="90" r="3" fill="rgb(155, 155, 155)"/><circle id="decor" cx="160" cy="90" r="3" fill="rgb(155, 155, 155)"/><circle id="decor" cx="10" cy="120" r="3" fill="rgb(155, 155, 155)"/><circle id="decor" cx="85" cy="120" r="3" fill="rgb(155, 155, 155)"/><circle id="decor" cx="160" cy="120" r="3" fill="rgb(155, 155, 155)"/><circle class="ranks" cx="104.5" cy="30" r="10" fill="rgb(249, 201, 177)" stroke="black"/><circle class="ranks" cx="53.5" cy="60" r="10" fill="rgb(129, 185, 216)" stroke="black"/><circle class="ranks" cx="70" cy="90" r="10" fill="rgb(205, 227, 238)" stroke="black"/><circle class="ranks" cx="17.5" cy="120" r="10" fill="rgb(19, 75, 133)" stroke="black"/><text class="labels" x="5" y="18" font-family="sans-serif" font-weight="bolder" font-size=".6rem" fill="black">Exit Velocity</text><text class="labels" x="5" y="48" font-family="sans-serif" font-weight="bolder" font-size=".6rem" fill="black">xBA</text><text class="labels" x="5" y="78" font-family="sans-serif" font-weight="bolder" font-size=".6rem" fill="black">K%</text><text class="labels" x="5" y="108" font-family="sans-serif" font-weight="bolder" font-size=".6rem" fill="black">Sprint Speed</text><text class="percentRank" x="98.5" y="33" font-weight="bolder" font-size=".7rem" fill="black">63</text><text class="percentRank" x="47.5" y="63" font-weight="bolder" font-size=".7rem" fill="white">28</text><text class="percentRank" x="64" y="93" font-weight="bolder" font-size=".7rem" fill="black">40</text><text class="percentRank" x="14.5" y="123" font-weight="bolder" font-size=".7rem" fill="white">5</text></svg>